<!--?xml version="1.0" standalone="no"?-->
              <svg id="sw-js-blob-svg" viewBox="0 0 100 100" xmlns="http://www.w3.org/2000/svg" version="1.1">
                    <defs> 
                        <linearGradient id="sw-gradient" x1="0" x2="1" y1="1" y2="0">
                            <stop id="stop1" stop-color="rgba(255, 255, 255, 1)" offset="0%"></stop>
                            <stop id="stop2" stop-color="rgba(0, 120.863, 229.902, 1)" offset="100%"></stop>
                        </linearGradient>
                    </defs>
                <path fill="url(#sw-gradient)" d="M8.8,-16.5C11.1,-13.9,12.5,-10.9,18.1,-8.1C23.8,-5.3,33.8,-2.7,34.9,0.7C36,4,28.3,7.9,22.1,9.7C15.8,11.5,11,11,7.5,10.3C4.1,9.6,2,8.5,-0.8,9.8C-3.6,11.2,-7.2,14.9,-10.9,15.8C-14.6,16.7,-18.4,14.7,-17.5,11.6C-16.7,8.5,-11.1,4.3,-11.3,-0.1C-11.5,-4.5,-17.4,-9,-19.3,-13.9C-21.2,-18.8,-19.1,-24.1,-15.2,-25.8C-11.3,-27.5,-5.6,-25.6,-1.2,-23.5C3.2,-21.4,6.5,-19.1,8.8,-16.5Z" width="100%" height="100%" transform="translate(50 50)" stroke-width="0" style="transition: all 0.3s ease 0s;" stroke="url(#sw-gradient)"></path>
              </svg>