<!--?xml version="1.0" standalone="no"?-->
              <svg id="sw-js-blob-svg" viewBox="0 0 100 100" xmlns="http://www.w3.org/2000/svg" version="1.1">
                    <defs> 
                        <linearGradient id="sw-gradient" x1="0" x2="1" y1="1" y2="0">
                            <stop id="stop1" stop-color="rgba(255, 255, 255, 1)" offset="0%"></stop>
                            <stop id="stop2" stop-color="rgba(255, 203.483, 0, 0.5)" offset="100%"></stop>
                        </linearGradient>
                    </defs>
                <path fill="url(#sw-gradient)" d="M19.6,-21.3C26.5,-17.7,33.8,-12.5,36.5,-5.3C39.2,1.9,37.2,11.1,33.1,20.1C29.1,29.1,23,37.9,15,40.4C7,43,-3,39.4,-10.4,34.2C-17.7,29.1,-22.3,22.3,-26.8,15.2C-31.3,8,-35.6,0.5,-35.7,-7.7C-35.9,-15.8,-31.9,-24.6,-25.3,-28.3C-18.7,-32,-9.3,-30.6,-1.5,-28.8C6.4,-27.1,12.8,-25,19.6,-21.3Z" width="100%" height="100%" transform="translate(50 50)" stroke-width="0" style="transition: all 0.3s ease 0s;" stroke="url(#sw-gradient)"></path>
              </svg>